<?xml version="1.0" encoding="utf-8"?>
<!-- Generator: Adobe Illustrator 24.0.3, SVG Export Plug-In . SVG Version: 6.00 Build 0)  -->
<svg version="1.1" id="Layer_1" xmlns="http://www.w3.org/2000/svg" xmlns:xlink="http://www.w3.org/1999/xlink" x="0px" y="0px"
	 viewBox="0 0 24 24" style="enable-background:new 0 0 24 24;" xml:space="preserve">
<style type="text/css">
	.st0{fill:none;}
	.st1{fill:#E6007A;}
</style>
<path class="st0" d="M0,0h24v24H0V0z"/>
<g>
	<path class="st1" d="M12,9.6c-1.3,0-2.4,1.1-2.4,2.4s1.1,2.4,2.4,2.4s2.4-1.1,2.4-2.4S13.3,9.6,12,9.6z"/>
	<path class="st1" d="M12,0C5.4,0,0,5.4,0,12c0,6.6,5.4,12,12,12s12-5.4,12-12C24,5.4,18.6,0,12,0z M20,13.1c0,1.2-0.7,2.2-1.7,2.7
		c-1.3,0.5-2.7,0-3.4-1c-0.9,0.9-2.3,1.4-3.8,1.1c-1.5-0.4-2.7-1.6-3-3.2C7.6,10,9.9,7.7,12.6,8c2,0.3,3.4,2.1,3.4,4.1v1
		c0,0.6,0.6,1.3,1.2,1.3s1.2-0.6,1.2-1.3v-0.9c0-3-1.9-5.7-4.8-6.5c-4.6-1.2-9,3.1-7.8,7.8c0.7,2.9,3.5,4.8,6.5,4.8h2.9
		c0.4,0,0.8,0.4,0.8,0.8S15.6,20,15.2,20h-3C8,20,4.3,16.8,4,12.6C3.7,7.7,7.7,3.7,12.6,4c4.2,0.3,7.4,4,7.4,8.2V13.1z"/>
</g>
</svg>
