<?xml version="1.0" encoding="utf-8"?>
<!-- Generator: Adobe Illustrator 22.1.0, SVG Export Plug-In . SVG Version: 6.00 Build 0)  -->
<svg version="1.1" id="Layer_1" xmlns="http://www.w3.org/2000/svg" xmlns:xlink="http://www.w3.org/1999/xlink" x="0px" y="0px"
	 viewBox="0 0 400 400" style="enable-background:new 0 0 400 400;" xml:space="preserve">
<style type="text/css">
	.st0{fill:#E6007A;}
</style>
<title>logo-circle-twitter</title>
<g id="Layer_2_1_">
	<g id="Layer_1-2">
		<path class="st0" d="M200,0C89.5,0,0,89.5,0,200s89.5,200,200,200s200-89.5,200-200S310.5,0,200,0z M300.5,162.1
			c0.1,2,0.1,4.1,0.1,6.2c0,63.7-48.5,137.2-137.2,137.2c-26.2,0.1-51.8-7.5-73.7-21.8c3.8,0.5,7.7,0.7,11.5,0.7
			c21.7,0,42.8-7.2,59.9-20.6c-20.6-0.4-38.7-13.8-45-33.5c3,0.6,6,0.9,9.1,0.9c4.3,0,8.6-0.6,12.7-1.7
			c-22.5-4.6-38.7-24.3-38.7-47.3v-0.6c6.7,3.7,14.2,5.8,21.8,6c-21.2-14.1-27.8-42.3-15-64.3c24.5,30.1,60.6,48.5,99.4,50.4
			c-0.9-3.6-1.3-7.3-1.3-11c0-26.6,21.7-48.2,48.3-48.2c13.3,0,26,5.5,35.1,15.2c10.8-2.1,21.1-6.1,30.6-11.7
			c-3.6,11.2-11.1,20.7-21.2,26.7c9.6-1.2,18.9-3.7,27.7-7.6C318.1,146.8,309.9,155.3,300.5,162.1z"/>
	</g>
</g>
</svg>
