<?xml version="1.0" encoding="utf-8"?>
<!-- Generator: Adobe Illustrator 24.0.3, SVG Export Plug-In . SVG Version: 6.00 Build 0)  -->
<svg version="1.1" id="Layer_1" xmlns="http://www.w3.org/2000/svg" xmlns:xlink="http://www.w3.org/1999/xlink" x="0px" y="0px"
	 viewBox="0 0 24 24" style="enable-background:new 0 0 24 24;" xml:space="preserve">
<style type="text/css">
	.st0{fill:#E6007A;}
</style>
<path class="st0" d="M12,0C5.4,0,0,5.4,0,12s5.4,12,12,12s12-5.4,12-12S18.6,0,12,0z M5.2,6.5c0-0.8,0.6-1.4,1.4-1.4h7.5
	c0.8,0,1.4,0.6,1.4,1.4v4.8c0,0.8-0.6,1.4-1.4,1.4H7.9l-2.7,2.7V6.5z M18.8,18.8l-2.7-2.7H9.3c-0.8,0-1.4-0.6-1.4-1.4v-0.7h8.2
	c0.4,0,0.7-0.3,0.7-0.7V7.9h0.7c0.8,0,1.4,0.6,1.4,1.4V18.8z"/>
</svg>
