<?xml version="1.0" encoding="utf-8"?>
<!-- Generator: Adobe Illustrator 22.1.0, SVG Export Plug-In . SVG Version: 6.00 Build 0)  -->
<svg version="1.1" id="Layer_1" xmlns="http://www.w3.org/2000/svg" xmlns:xlink="http://www.w3.org/1999/xlink" x="0px" y="0px"
	 viewBox="0 0 1000 1000" style="enable-background:new 0 0 1000 1000;" xml:space="preserve">
<style type="text/css">
	.st0{fill:#E6007A;}
</style>
<title>logo-circle-reddit</title>
<g id="Layer_2_1_">
	<g id="Layer_1-2">
		<circle class="st0" cx="614.6" cy="552.1" r="52.1"/>
		
			<ellipse transform="matrix(0.7071 -0.7071 0.7071 0.7071 -277.5167 434.2195)" class="st0" cx="385.4" cy="552.1" rx="52.1" ry="52.1"/>
		<path class="st0" d="M604.7,670.6C582.3,693,534.3,701,500.1,701s-82.2-8-104.6-30.4c-5.4-5.1-14-4.9-19.1,0.5
			c-5,5.2-5,13.4,0,18.6c35.5,35.5,103.7,38.3,123.7,38.3s88.1-2.8,123.7-38.3c5.2-5.3,5.2-13.8,0-19.1S610,665.3,604.7,670.6
			L604.7,670.6z"/>
		<path class="st0" d="M500,0C223.9,0,0,223.9,0,500s223.9,500,500,500s500-223.9,500-500S776.1,0,500,0z M790.1,566.7
			c1.1,7.2,1.7,14.6,1.7,21.9c0,112.2-130.6,203.1-291.7,203.1s-291.7-90.9-291.7-203.1c0-7.4,0.6-14.8,1.7-22.1
			c-36.7-16.4-53.2-59.5-36.8-96.3s59.5-53.2,96.3-36.8c7.7,3.4,14.7,8.1,20.7,13.9c50.6-36.5,120.6-59.8,198.5-61.8
			c-0.1-1-0.1-1.9,0-2.9l36.4-171.5c0.7-3.4,2.7-6.3,5.6-8.2c2.9-1.9,6.4-2.5,9.8-1.8L661.8,227c12.7-25.8,43.9-36.4,69.7-23.7
			s36.4,43.9,23.7,69.7s-43.9,36.4-69.7,23.7c-17-8.4-28.1-25.3-29-44.2L548,229.4l-33.2,156.3c76.5,2.7,145.2,25.9,195,61.9
			c28.9-28,75-27.2,103,1.7c13.2,13.6,20.5,31.8,20.5,50.7C833.3,528.8,816.4,554.9,790.1,566.7z"/>
	</g>
</g>
</svg>
