<?xml version="1.0" encoding="utf-8"?>
<!-- Generator: Adobe Illustrator 25.0.1, SVG Export Plug-In . SVG Version: 6.00 Build 0)  -->
<svg version="1.1" id="Layer_1" xmlns="http://www.w3.org/2000/svg" xmlns:xlink="http://www.w3.org/1999/xlink" x="0px" y="0px"
	 viewBox="0 0 496 496" style="enable-background:new 0 0 496 496;" xml:space="preserve">
<style type="text/css">
	.st0{fill:#E6007A;}
</style>
<g>
	<path class="st0" d="M272.9,181l-2.1,2.3c24.9,7.6,36.5,18.6,36.5,18.6c-15.2-8.4-30.2-12.5-44.1-14.1c-10.6-1.2-20.7-0.9-29.6,0.3
		c-0.9,0-1.6,0.1-2.5,0.3c-5.1,0.4-17.6,2.3-33.3,9.2c-5.4,2.5-8.7,4.3-8.7,4.3s12.2-11.6,38.6-19.2l-1.5-1.8
		c0,0-20.1-0.4-41.2,15.4c0,0-21.1,38.3-21.1,85.5c0,0,12.3,21.3,44.7,22.3c0,0,5.4-6.6,9.8-12.2c-18.6-5.6-25.7-17.3-25.7-17.3
		s1.5,1,4.1,2.5c0.1,0.1,0.3,0.3,0.6,0.4c0.4,0.3,0.9,0.4,1.3,0.7c3.7,2.1,7.3,3.7,10.7,5c6,2.3,13.2,4.7,21.6,6.3
		c11,2.1,23.9,2.8,38,0.1c6.9-1.2,13.9-3.2,21.3-6.3c5.1-1.9,10.8-4.7,16.9-8.7c0,0-7.3,12-26.5,17.4c4.4,5.6,9.7,11.9,9.7,11.9
		c32.4-1,44.9-22.3,44.9-22.3c0-47.2-21.1-85.5-21.1-85.5C293,180.6,272.9,181,272.9,181z M222.2,268.2c-8.2,0-15-7.3-15-16.3
		c0-8.9,6.6-16.3,15-16.3c8.4,0,15.1,7.3,15,16.3C237.2,260.9,230.6,268.2,222.2,268.2z M275.7,268.2c-8.2,0-15-7.3-15-16.3
		c0-8.9,6.6-16.3,15-16.3c8.4,0,15,7.3,15,16.3C290.7,260.9,284.1,268.2,275.7,268.2z"/>
	<path class="st0" d="M248,0C111,0,0,111,0,248s111,248,248,248s248-111,248-248S385,0,248,0z M377,405.9L345.5,378l-17.7-16.4
		L309,344.2l7.8,27.1H150.5c-16.6,0-30.1-13.5-30.1-30.2V142.9c0-16.7,13.5-30.2,30.1-30.2H347c16.6,0,30.1,13.5,30.1,30.2V405.9z"
		/>
</g>
</svg>
