<?xml version="1.0" encoding="utf-8"?>
<!-- Generator: Adobe Illustrator 24.0.3, SVG Export Plug-In . SVG Version: 6.00 Build 0)  -->
<svg version="1.1" id="Layer_1" xmlns="http://www.w3.org/2000/svg" xmlns:xlink="http://www.w3.org/1999/xlink" x="0px" y="0px"
	 viewBox="0 0 24 24" style="enable-background:new 0 0 24 24;" xml:space="preserve">
<style type="text/css">
	.st0{fill:#E6007A;}
	.st1{fill:#FFFFFF;}
</style>
<circle class="st0" cx="12" cy="12" r="12"/>
<path class="st1" d="M17.7,6.3H6.3C5.6,6.3,4.9,7,4.9,7.8l0,8.5c0,0.8,0.6,1.4,1.4,1.4h11.3c0.8,0,1.4-0.6,1.4-1.4V7.8
	C19.1,7,18.4,6.3,17.7,6.3z M17.4,9.3l-5,3.1c-0.2,0.1-0.5,0.1-0.8,0l-5-3.1C6.4,9.2,6.3,9,6.3,8.8c0-0.5,0.5-0.8,0.9-0.5l4.7,3
	l4.7-3c0.4-0.2,0.9,0,0.9,0.5C17.7,9,17.6,9.2,17.4,9.3z"/>
</svg>
