<?xml version="1.0" encoding="utf-8"?>
<!-- Generator: Adobe Illustrator 22.1.0, SVG Export Plug-In . SVG Version: 6.00 Build 0)  -->
<svg version="1.1" id="Layer_1" xmlns="http://www.w3.org/2000/svg" xmlns:xlink="http://www.w3.org/1999/xlink" x="0px" y="0px"
	 viewBox="0 0 174.2 174.2" style="enable-background:new 0 0 174.2 174.2;" xml:space="preserve">
<style type="text/css">
	.st0{fill:#E6007A;}
</style>
<title>logo-circle-youtube</title>
<g id="Layer_2_1_">
	<g id="Layer_1-2">
		<path class="st0" d="M87.1,0C39,0,0,39,0,87.1s39,87.1,87.1,87.1s87.1-39,87.1-87.1C174.2,39,135.2,0,87.1,0z M135.9,87.2
			c0,0,0,15.9-2,23.5c-1.1,4.2-4.4,7.5-8.6,8.7c-7.6,2-38.2,2-38.2,2s-30.5,0-38.2-2.1c-4.2-1.1-7.5-4.4-8.6-8.6
			c-2-7.6-2-23.5-2-23.5s0-15.9,2-23.5c1.2-4.2,4.4-7.5,8.6-8.7c7.6-2,38.2-2,38.2-2s30.6,0,38.2,2.1c4.2,1.1,7.5,4.4,8.6,8.6
			C136,71.3,135.9,87.2,135.9,87.2z"/>
		<polygon class="st0" points="77.4,101.7 102.8,87.1 77.4,72.5 		"/>
	</g>
</g>
</svg>
